# xmcd CD database file
#
# Track frame offsets:
#	150
#	37763
#	79576
#	108751
#	137289
#	164894
#	182951
#	200389
#	217846
#	236821
#	254146
#	271265
#	285759
#	304041
#	321798
#	334717
#
# Disc length: 4694 seconds
#
# Revision: 0
# Processed by: cddbd v1.5.2PL0 Copyright (c) Steve Scherf et al.
# Submitted via: CDex 1.70beta2
#
DISCID=da125410
DTITLE=Kenny Burrell - Blue moods
DYEAR=1900
DGENRE=Jazz
TTITLE0=Don't cry baby
TTITLE1=Drum Boogie
TTITLE2=Strictly confidential
TTITLE3=All of you
TTITLE4=Perception
TTITLE5=Pennies from heaven
TTITLE6=Gone with the wind
TTITLE7=If I'm lucky
TTITLE8=Blue Zepher
TTITLE9=Struttin' in
TTITLE10=I see your face before me
TTITLE11=Bright's spot
TTITLE12=Little girl blue
TTITLE13=But not for me
TTITLE14=Little girl blue #2
TTITLE15=Something to remember you by
EXTD=
EXTT0=
EXTT1=
EXTT2=
EXTT3=
EXTT4=
EXTT5=
EXTT6=
EXTT7=
EXTT8=
EXTT9=
EXTT10=
EXTT11=
EXTT12=
EXTT13=
EXTT14=
EXTT15=
PLAYORDER=
